<svg width="66" height="100" viewBox="0 0 66 100" fill="none" xmlns="http://www.w3.org/2000/svg">
<path d="M57.438 45.5089C59.3475 44.7963 61.5499 45.5037 62.355 47.3761C64.02 51.2492 64.9428 55.5169 64.9429 60.0001C64.9427 75.3469 54.1388 88.1675 39.7222 91.2775V95.2159C39.7218 97.8205 36.6294 99.1883 34.7026 97.4357L28.3687 91.673C12.8629 89.4532 0.943043 76.1197 0.942871 60.0001C0.94292 55.6559 1.80982 51.514 3.37842 47.7374C4.16015 45.8554 6.35303 45.1211 8.271 45.8097C15.8208 48.5217 23.9595 50.0001 32.4429 50.0001C41.2355 50.0001 49.6577 48.4124 57.438 45.5089ZM18.9429 64.0001C16.7341 64.0004 14.9431 65.7913 14.9429 68.0001C14.9431 70.2089 16.7341 71.9999 18.9429 72.0001C21.1519 72.0001 22.9427 70.2091 22.9429 68.0001C22.9427 65.7912 21.1519 64.0001 18.9429 64.0001ZM33.9429 64.0001C31.7341 64.0004 29.9431 65.7913 29.9429 68.0001C29.9431 70.2089 31.7341 71.9999 33.9429 72.0001C36.1519 72.0001 37.9427 70.2091 37.9429 68.0001C37.9427 65.7912 36.1519 64.0001 33.9429 64.0001ZM48.9429 64.0001C46.7341 64.0004 44.9431 65.7913 44.9429 68.0001C44.9431 70.2089 46.7341 71.9999 48.9429 72.0001C51.1519 72.0001 52.9427 70.2091 52.9429 68.0001C52.9427 65.7912 51.1519 64.0001 48.9429 64.0001Z" fill="#0540F2"/>
<path d="M32.9432 0C36.9432 0 37.4432 2 36.9432 4C36.4432 6.00002 35.9432 10 35.9432 10C35.9432 10.0732 35.9973 10.1359 36.0702 10.1426C50.2036 11.4314 61.8358 21.3699 65.6307 34.6201C66.1125 36.3025 65.2716 38.0562 63.6981 38.8223C54.2559 43.4192 43.6512 46 32.4432 46C21.6003 46 11.3216 43.5851 2.11414 39.2656C0.529829 38.5224 -0.335408 36.781 0.121948 35.0918C3.77332 21.6067 15.5141 11.4474 29.8143 10.1426C29.8875 10.1359 29.9432 10.0735 29.9432 10C29.9417 9.98801 29.4426 5.99699 28.9432 4C28.4432 2.00005 28.9435 7.33407e-05 32.9432 0ZM43.4286 17.3291C42.981 16.6321 42.0525 16.4304 41.3553 16.8779C40.6585 17.3255 40.4559 18.2532 40.9032 18.9502L42.2538 21.0537L38.8876 23.2148L35.3768 17.7451C34.9293 17.048 34.0007 16.8454 33.3036 17.293C32.6067 17.7406 32.405 18.6682 32.8524 19.3652L36.3632 24.8359L27.5272 30.5078C26.8304 30.9553 26.6279 31.883 27.0751 32.5801C27.5226 33.2772 28.4512 33.4798 29.1483 33.0322L37.9843 27.3604L41.2255 32.4092L38.2802 34.2998C37.583 34.7473 37.3805 35.6759 37.828 36.373C38.2756 37.0699 39.2032 37.2716 39.9003 36.8242L42.8456 34.9336L43.6561 36.1963C44.1037 36.8934 45.0322 37.096 45.7294 36.6484C46.4264 36.2009 46.628 35.2723 46.1805 34.5752L45.371 33.3135L48.7372 31.1523L52.788 37.4639C53.2355 38.161 54.1641 38.3635 54.8612 37.916C55.5583 37.4685 55.7609 36.5399 55.3134 35.8428L51.2616 29.5312L54.2069 27.6406C54.9037 27.1931 55.1063 26.2654 54.6591 25.5684C54.2115 24.8712 53.283 24.6687 52.5858 25.1162L49.6405 27.0068L46.3993 21.958L47.662 21.1475C48.3588 20.6999 48.5613 19.7722 48.1141 19.0752C47.6666 18.3781 46.738 18.1755 46.0409 18.623L44.7792 19.4336L43.4286 17.3291ZM47.1161 28.6279L43.7499 30.7891L40.5087 25.7393L43.8749 23.5781L47.1161 28.6279Z" fill="#3265FF"/>
</svg>
